<svg xmlns="http://www.w3.org/2000/svg" viewBox="0 0 686.01 665.63"><defs><style>.cls-1{fill:#1371b5;}.cls-2{fill:#58add8;}.cls-3{fill:#0a75b8;}</style></defs><g id="Layer_2" data-name="Layer 2"><g id="Layer_1-2" data-name="Layer 1"><path class="cls-1" d="M161.76,618c-25.51-17-82.12-59.92-113.29-137.39-53.21-132.19,12.65-253,22.19-269.9,8.57-14.67,48.2-78.81,131.44-104,76.89-23.24,140.59,2,157.46,9.34,0,0,145.88,69.23,100.14,231.18-3.06,10.13-22.19,69.91-85,100.9-69.29,34.17-134.71,5.17-143.17,1.25-37.24-17.28-57.16-45.81-64.58-58-.51-.83-1.41-2.33-2.51-4.26-7.5-13.27-24.56-48.31-19.37-93.08,1.3-11.25,5.69-45.13,32.14-76.33,4.64-5.48,45.28-51.75,109.41-49.14,13.27.53,42.8,3.8,71.08,24.72,45.86,33.91,50.76,86.33,51.3,93.39.76,9.92,2.35,34.85-11.12,61.76-3.06,6.12-27.1,52.35-76.44,59-6.94.93-40.19,5.41-64.95-17.15-4.69-4.27-19.65-18.34-21.23-41.19-2-29.73,20.3-49.14,22.93-51.35-13.44,17.71-16.42,40.64-7.69,59.54,12.34,26.71,41.62,31.33,46,31.95,41,5.75,69.82-34.58,73.24-39.53,19.75-28.58,17-59.62,15.77-69.26,0,0-18.54-101.38-124.86-87.78-10.29,1.69-46.22,8.88-71.67,40.81-33,41.44-21.93,91.75-19.41,103.31,9.88,45.24,40.19,71.56,50.62,79.84,4.8,3.31,64.16,42.82,130.88,16.13,51.12-20.45,71.34-65.66,75.24-74.89,0,0,64.44-141.71-86.46-214.65,0,0-122.47-48.21-206.53,66.76A201.77,201.77,0,0,0,108,269.26c-17.42,70.42,9.61,131,20.4,154.49a278.12,278.12,0,0,0,43.06,66.53,98.67,98.67,0,0,1,18.75,49.14C194,582.68,166.59,612.88,161.76,618Z"/><path class="cls-2" d="M269,289.19s-27.81-51.92,49.14-72.32C318.14,216.87,334.83,292.9,269,289.19Z"/><path class="cls-2" d="M207.81,260.45s45.43-8.09,46.36,28.87C254.17,289.32,225.56,316.17,207.81,260.45Z"/><path class="cls-2" d="M315.36,346.68s0-54.71-46.36-44.51C269,302.17,257.29,349.35,315.36,346.68Z"/><path class="cls-2" d="M394.17,665.63s117.76-22.25,168.75-96.43c0,0,77.89-83.45,77.89-197.49,0,0,5.56-102.92-72.32-204,0,0-71.4-82.52-174.32-102,0,0-80.26-13.91-130.06,4.63,0,0,86.49-24.1,164.37,34.31,0,0,91.79,57.7,77,191.11,0,0,7.41,11.71,22.25,28,0,0,26.89,28.4,31.52,45.09,0,0,0,7.42-25,23.18,0,0-1.86,19.47,2.78,30.59l8.35,11.13s-7.42,8.35-15.77,10.2c0,0,10.2,2.78,10.2,11.13,0,0-19.47,22.25-16.69,53.77,0,0,9.27,35.24-37.08,41.73,0,0-81.6-13-98.29,28.74C387.68,579.4,361.72,641.52,394.17,665.63Z"/><path class="cls-3" d="M19.59,463.5A358.62,358.62,0,0,1,7,365.9C8,258.12,58.25,179,83.57,144.55c0,0,110.33-137.23,292.06-112.19,0,0,131.66-1.86,236.43,143.71a336.44,336.44,0,0,1,55.66,145.67,345.91,345.91,0,0,1-5.24,107.12c-16.74,80.28-58.31,135-81.94,161.67,0,0,92.72-75.48,104.77-227.35,0,0,13.91-132.4-82.52-242.74,0,0-80.66-105.7-226.23-118.68-30.93-3.16-104-6.42-184.1,32A345.8,345.8,0,0,0,57.87,149.08a344.61,344.61,0,0,0-39.44,79.73C-16.37,330.7,6.4,422.51,19.59,463.5Z"/></g></g></svg>